<svg width="18" height="17" viewBox="0 0 18 17" fill="none" xmlns="http://www.w3.org/2000/svg">
<path d="M8.10326 0.644866C8.47008 -0.0983793 9.52992 -0.0983791 9.89674 0.644866L11.7063 4.31135C11.8519 4.6065 12.1335 4.81107 12.4592 4.8584L16.5054 5.44634C17.3256 5.56553 17.6531 6.5735 17.0596 7.15204L14.1318 10.006C13.8961 10.2357 13.7885 10.5667 13.8442 10.8911L14.5353 14.921C14.6754 15.7379 13.818 16.3609 13.0844 15.9752L9.46534 14.0725C9.17402 13.9194 8.82598 13.9194 8.53466 14.0725L4.91562 15.9752C4.18199 16.3609 3.32456 15.7379 3.46467 14.921L4.15585 10.8911C4.21148 10.5667 4.10393 10.2357 3.86825 10.006L0.940385 7.15204C0.346867 6.5735 0.674378 5.56553 1.4946 5.44634L5.54081 4.8584C5.86652 4.81107 6.14808 4.6065 6.29374 4.31135L8.10326 0.644866Z" fill="#2D2D2D"/>
</svg>
